<svg width="36" height="41" viewBox="0 0 36 41" fill="none" xmlns="http://www.w3.org/2000/svg">
<path d="M23.6842 28.4205L29.1032 31.57L27.6821 33.8436L20.8421 29.8182V20.5H23.6842V28.4205ZM36 27.9545C36 35.1668 30.0695 41 22.7368 41C19.1179 41 15.8589 39.5836 13.4716 37.2727H3.78947C1.68632 37.2727 0 35.6141 0 33.5455V3.72727C0 1.67727 1.68632 0 3.78947 0H5.68421V13.0455L10.4211 10.25L15.1579 13.0455V0H26.5263C28.6105 0 30.3158 1.65864 30.3158 3.72727V17.2573C33.7453 19.6241 36 23.5191 36 27.9545ZM32.2105 27.9545C32.2105 22.8109 27.9663 18.6364 22.7368 18.6364C17.5074 18.6364 13.2632 22.8109 13.2632 27.9545C13.2632 33.0982 17.5074 37.2727 22.7368 37.2727C27.9663 37.2727 32.2105 33.0982 32.2105 27.9545Z" fill="white"/>
</svg>
