<svg width="26" height="29" viewBox="0 0 26 29" fill="none" xmlns="http://www.w3.org/2000/svg">
<path d="M0 7.25V4.35H2.88889V2.9C2.88889 1.2905 4.18889 0 5.77778 0H14.4444V10.15L18.0556 7.975L21.6667 10.15V0H23.1111C24.6278 0 26 1.3775 26 2.9V26.1C26 27.6225 24.6278 29 23.1111 29H5.77778C4.26111 29 2.88889 27.6225 2.88889 26.1V24.65H0V21.75H2.88889V15.95H0V13.05H2.88889V7.25H0ZM5.77778 13.05H2.88889V15.95H5.77778V13.05ZM5.77778 7.25V4.35H2.88889V7.25H5.77778ZM5.77778 24.65V21.75H2.88889V24.65H5.77778Z" fill="#969CB2"/>
</svg>
