<svg width="18" height="23" viewBox="0 0 18 23" fill="none" xmlns="http://www.w3.org/2000/svg">
<path d="M2.03625 0C0.93375 0.1035 0 1.15 0 2.3V20.7C0 21.9075 1.06875 23 2.25 23H15.75C16.9312 23 18 21.9075 18 20.7V2.3C18 1.0235 16.9875 0 15.75 0H9V8.05L6.1875 6.325L3.375 8.05V0H2.25C2.1825 0 2.10375 0 2.03625 0ZM9 12.65H10.125C10.4234 12.65 10.7095 12.7712 10.9205 12.9868C11.1315 13.2025 11.25 13.495 11.25 13.8V18.4H10.125V16.1H9V18.4H7.875V13.8C7.875 13.495 7.99353 13.2025 8.2045 12.9868C8.41548 12.7712 8.70163 12.65 9 12.65ZM9 13.8V14.95H10.125V13.8H9ZM12.375 14.95H15.75V16.1L13.5 19.55H15.75V20.7H12.375V19.55L14.625 16.1H12.375V14.95Z" fill="#969CB2"/>
</svg>
