<svg width="18" height="28" viewBox="0 0 18 28" fill="none" xmlns="http://www.w3.org/2000/svg">
<path d="M15.4286 2.54545H11.5714V6.36364H6.42857V2.54545H2.57143C1.88944 2.54545 1.23539 2.81364 0.753154 3.291C0.270917 3.76837 0 4.41581 0 5.09091V25.4545C0 26.1296 0.270917 26.7771 0.753154 27.2545C1.23539 27.7318 1.88944 28 2.57143 28H15.4286C16.1106 28 16.7646 27.7318 17.2468 27.2545C17.7291 26.7771 18 26.1296 18 25.4545V5.09091C18 4.41581 17.7291 3.76837 17.2468 3.291C16.7646 2.81364 16.1106 2.54545 15.4286 2.54545ZM9 8.90909C9.68198 8.90909 10.336 9.17727 10.8183 9.65464C11.3005 10.132 11.5714 10.7794 11.5714 11.4545C11.5714 12.1296 11.3005 12.7771 10.8183 13.2545C10.336 13.7318 9.68198 14 9 14C8.31801 14 7.66396 13.7318 7.18173 13.2545C6.69949 12.7771 6.42857 12.1296 6.42857 11.4545C6.42857 10.7794 6.69949 10.132 7.18173 9.65464C7.66396 9.17727 8.31801 8.90909 9 8.90909ZM14.1429 19.0909H3.85714V17.8182C3.85714 16.1255 7.29 15.2727 9 15.2727C10.71 15.2727 14.1429 16.1255 14.1429 17.8182V19.0909ZM10.2857 5.09091H7.71429V0H10.2857V5.09091ZM14.1429 22.9091H3.85714V21.6364H14.1429V22.9091ZM9 25.4545H3.85714V24.1818H9V25.4545Z" fill="#969CB2"/>
</svg>
