<svg width="18" height="24" viewBox="0 0 18 24" fill="none" xmlns="http://www.w3.org/2000/svg">
<path d="M9 18.2857C9.59674 18.2857 10.169 18.0449 10.591 17.6162C11.0129 17.1876 11.25 16.6062 11.25 16C11.25 14.7314 10.2375 13.7143 9 13.7143C8.40326 13.7143 7.83097 13.9551 7.40901 14.3838C6.98705 14.8124 6.75 15.3938 6.75 16C6.75 16.6062 6.98705 17.1876 7.40901 17.6162C7.83097 18.0449 8.40326 18.2857 9 18.2857ZM15.75 8C16.3467 8 16.919 8.24082 17.341 8.66947C17.7629 9.09813 18 9.67951 18 10.2857V21.7143C18 22.3205 17.7629 22.9019 17.341 23.3305C16.919 23.7592 16.3467 24 15.75 24H2.25C1.65326 24 1.08097 23.7592 0.65901 23.3305C0.237053 22.9019 0 22.3205 0 21.7143V10.2857C0 9.01714 1.0125 8 2.25 8H3.375V5.71429C3.375 4.19876 3.96763 2.74531 5.02252 1.67368C6.07742 0.602039 7.50816 0 9 0C9.73869 0 10.4701 0.147804 11.1526 0.434974C11.8351 0.722144 12.4551 1.14306 12.9775 1.67368C13.4998 2.2043 13.9141 2.83423 14.1968 3.52752C14.4795 4.22081 14.625 4.96388 14.625 5.71429V8H15.75ZM9 2.28571C8.10489 2.28571 7.24645 2.64694 6.61351 3.28992C5.98058 3.9329 5.625 4.80497 5.625 5.71429V8H12.375V5.71429C12.375 4.80497 12.0194 3.9329 11.3865 3.28992C10.7536 2.64694 9.89511 2.28571 9 2.28571Z" fill="#969CB2"/>
</svg>
